<svg id="Camera" xmlns="http://www.w3.org/2000/svg" width="75.97" height="57" viewBox="0 0 75.97 57">
  <metadata><?xpacket begin="﻿" id="W5M0MpCehiHzreSzNTczkc9d"?>
<x:xmpmeta xmlns:x="adobe:ns:meta/" x:xmptk="Adobe XMP Core 5.6-c138 79.159824, 2016/09/14-01:09:01        ">
   <rdf:RDF xmlns:rdf="http://www.w3.org/1999/02/22-rdf-syntax-ns#">
      <rdf:Description rdf:about=""/>
   </rdf:RDF>
</x:xmpmeta>
                                                                                                    
                                                                                                    
                                                                                                    
                                                                                                    
                                                                                                    
                                                                                                    
                                                                                                    
                                                                                                    
                                                                                                    
                                                                                                    
                                                                                                    
                                                                                                    
                                                                                                    
                                                                                                    
                                                                                                    
                                                                                                    
                                                                                                    
                                                                                                    
                                                                                                    
                                                                                                    
                           
<?xpacket end="w"?></metadata>
<defs>
    <style>
      .cls-1, .cls-2 {
        fill: #45484c;
        fill-rule: evenodd;
      }

      .cls-1 {
        fill-opacity: 0;
        stroke: #45484c;
        stroke-linejoin: round;
        stroke-width: 3px;
      }
    </style>
  </defs>
  <path class="cls-1" d="M961.936,1182.13l50.154-31.41,12.78,20.71-42.582,27.06-7.686-12.56Z" transform="translate(-957 -1146)"/>
  <path id="Rounded_Rectangle_12" data-name="Rounded Rectangle 12" class="cls-2" d="M1008.76,1183.05l10.99,17.38c0.64,0.37.2,1.19-.18,1.83a1.34,1.34,0,0,1-1.83.49l-10.99-17.37a1.34,1.34,0,0,1-.49-1.83A2.254,2.254,0,0,1,1008.76,1183.05Z" transform="translate(-957 -1146)"/>
  <path id="Rounded_Rectangle_13" data-name="Rounded Rectangle 13" class="cls-2" d="M1019.71,1199.95h11.92a1.345,1.345,0,1,1,0,2.69h-11.92A1.345,1.345,0,0,1,1019.71,1199.95Z" transform="translate(-957 -1146)"/>
  <path id="Rounded_Rectangle_24_copy_6" data-name="Rounded Rectangle 24 copy 6" class="cls-2" d="M1000.46,1169.89l8.47-5.33a1.5,1.5,0,0,1,1.59,2.54l-8.46,5.33A1.5,1.5,0,0,1,1000.46,1169.89Z" transform="translate(-957 -1146)"/>
</svg>
