<svg id="Guitar" xmlns="http://www.w3.org/2000/svg" width="85" height="83.81" viewBox="0 0 85 83.81">
  <metadata><?xpacket begin="﻿" id="W5M0MpCehiHzreSzNTczkc9d"?>
<x:xmpmeta xmlns:x="adobe:ns:meta/" x:xmptk="Adobe XMP Core 5.6-c138 79.159824, 2016/09/14-01:09:01        ">
   <rdf:RDF xmlns:rdf="http://www.w3.org/1999/02/22-rdf-syntax-ns#">
      <rdf:Description rdf:about=""/>
   </rdf:RDF>
</x:xmpmeta>
                                                                                                    
                                                                                                    
                                                                                                    
                                                                                                    
                                                                                                    
                                                                                                    
                                                                                                    
                                                                                                    
                                                                                                    
                                                                                                    
                                                                                                    
                                                                                                    
                                                                                                    
                                                                                                    
                                                                                                    
                                                                                                    
                                                                                                    
                                                                                                    
                                                                                                    
                                                                                                    
                           
<?xpacket end="w"?></metadata>
<defs>
    <style>
      .cls-1 {
        fill: #fff;
        stroke: #45484c;
        stroke-linejoin: round;
        stroke-width: 3px;
      }

      .cls-1, .cls-2 {
        fill-rule: evenodd;
      }

      .cls-2, .cls-3 {
        fill: #45484c;
      }
    </style>
  </defs>
  <path class="cls-1" d="M614.456,1409.41c-3.7-3.76-5.95-7.62-6.222-11.17-0.3-3.98-.783-9.12,10.269-12.85,4.877-1.64,7.451-.45,10.306-9.65,1.059-3.42,3.975-6.86,8.176-7.09,2.922-.16,4.571.04,4.431,2.32s-4.482,5.6-3.411,6.93,2.064,1.31,2.5.88c1.089-1.07,26-25.59,26-25.59s-0.7-1.92.27-2.87a12.092,12.092,0,0,1,2.5-1.75l10.748-5.4s2.739-1.34,3.931-.13,1.558,4.48-.09,6.1c-1.457,1.43-2.3.93-3.751,1.59s-1.243,2.98-2.408,4.12-3.61,2.41-4.86,2.11a2.61,2.61,0,0,0-2.271.83l-28.634,28.16s-1.459,2.2-.217,3.46a3.508,3.508,0,0,0,4.326.33c0.968-.77,3.2-2.58,4.436-1.31a4.716,4.716,0,0,1-.34,6.25c-1.94,1.91-4.165,3.33-6,3.6-1.548.23-4.59,1.29-6.329,9.09-0.319,1.43-4.4,9.7-11.62,8.76C621.249,1415.48,616.933,1411.93,614.456,1409.41Z" transform="translate(-604 -1337.19)"/>
  <path id="Rounded_Rectangle_24" data-name="Rounded Rectangle 24" class="cls-2" d="M629.654,1389.42l3.5,4.24a1.5,1.5,0,0,1-2.313,1.91l-3.5-4.24A1.5,1.5,0,0,1,629.654,1389.42Z" transform="translate(-604 -1337.19)"/>
  <path id="Rounded_Rectangle_24_copy_4" data-name="Rounded Rectangle 24 copy 4" class="cls-2" d="M625.654,1393.42l3.5,4.24a1.5,1.5,0,0,1-2.314,1.91l-3.5-4.24A1.5,1.5,0,0,1,625.654,1393.42Z" transform="translate(-604 -1337.19)"/>
  <circle id="Ellipse_870_copy_5" data-name="Ellipse 870 copy 5" class="cls-3" cx="63.813" cy="7.7" r="1.375"/>
  <circle id="Ellipse_870_copy_9" data-name="Ellipse 870 copy 9" class="cls-3" cx="23.829" cy="72.795" r="1.359"/>
  <circle id="Ellipse_870_copy_6" data-name="Ellipse 870 copy 6" class="cls-3" cx="68.454" cy="5.33" r="1.359"/>
  <circle id="Ellipse_870_copy_7" data-name="Ellipse 870 copy 7" class="cls-3" cx="72.735" cy="3.045" r="1.36"/>
  <path id="Ellipse_870_copy_8" data-name="Ellipse 870 copy 8" class="cls-2" d="M681.84,1337.52a1.365,1.365,0,1,1-1.92.15A1.374,1.374,0,0,1,681.84,1337.52Z" transform="translate(-604 -1337.19)"/>
</svg>
