<?xml version="1.0" encoding="UTF-8" standalone="no"?>
<!-- Created with Inkscape (http://www.inkscape.org/) -->

<svg
   xmlns:dc="http://purl.org/dc/elements/1.1/"
   xmlns:cc="http://creativecommons.org/ns#"
   xmlns:rdf="http://www.w3.org/1999/02/22-rdf-syntax-ns#"
   xmlns:svg="http://www.w3.org/2000/svg"
   xmlns="http://www.w3.org/2000/svg"
   xmlns:sodipodi="http://sodipodi.sourceforge.net/DTD/sodipodi-0.dtd"
   xmlns:inkscape="http://www.inkscape.org/namespaces/inkscape"
   width="72.554237mm"
   height="47.609135mm"
   viewBox="0 0 72.554234 47.609128"
   version="1.1"
   id="svg8"
   inkscape:version="0.92.1 r15371"
   sodipodi:docname="icon-3.svg">
  <defs
     id="defs2" />
  <sodipodi:namedview
     id="base"
     pagecolor="#ffffff"
     bordercolor="#666666"
     borderopacity="1.0"
     inkscape:pageopacity="0.0"
     inkscape:pageshadow="2"
     inkscape:zoom="0.49497475"
     inkscape:cx="97.946964"
     inkscape:cy="-43.47267"
     inkscape:document-units="mm"
     inkscape:current-layer="layer1"
     showgrid="false"
     fit-margin-top="0"
     fit-margin-left="0"
     fit-margin-right="0"
     fit-margin-bottom="0"
     inkscape:window-width="1366"
     inkscape:window-height="705"
     inkscape:window-x="-8"
     inkscape:window-y="-8"
     inkscape:window-maximized="1" />
  <metadata
     id="metadata5">
    <rdf:RDF>
      <cc:Work
         rdf:about="">
        <dc:format>image/svg+xml</dc:format>
        <dc:type
           rdf:resource="http://purl.org/dc/dcmitype/StillImage" />
        <dc:title></dc:title>
      </cc:Work>
    </rdf:RDF>
  </metadata>
  <g
     inkscape:label="Layer 1"
     inkscape:groupmode="layer"
     id="layer1"
     transform="translate(-17.842383,-124.09023)">
    <path
       style="fill:#6fa0d8;stroke-width:0.26458335"
       d="m 32.074139,157.15355 c -11.57137,-11.5728 -14.47697,-14.61287 -14.21599,-14.87385 0.26099,-0.26098 0.90919,0.25132 3.1714,2.50652 l 2.84337,2.83456 4.95748,-4.96263 c 2.72661,-2.72945 4.95747,-5.08553 4.95747,-5.23573 0,-0.1502 -0.53578,-0.79892 -1.19063,-1.4416 -0.65484,-0.64268 -1.19062,-1.26279 -1.19062,-1.37801 0,-0.55271 1.05752,-0.10035 1.98437,0.84884 0.56839,0.58208 1.1596,1.05833 1.3138,1.05833 0.15419,0 2.71524,-2.44078 5.69122,-5.42396 2.97597,-2.98317 5.47557,-5.42395 5.55466,-5.42395 0.0791,0 3.53294,3.39069 7.67521,7.53488 5.982485,5.98525 7.464095,7.60218 7.204145,7.86213 -0.25995,0.25995 -0.83078,-0.17418 -2.775615,-2.11092 -1.3466,-1.341 -2.57016,-2.43818 -2.71903,-2.43818 -0.14886,0 -0.7965,0.53578 -1.43918,1.19063 -0.64268,0.65484 -1.2913,1.19062 -1.44139,1.19062 -0.15009,0 -2.32827,-2.05287 -4.84041,-4.56193 l -4.56753,-4.56194 -9.25919,9.25636 -9.2592,9.25635 1.72897,1.72173 1.72897,1.72172 1.34342,-1.40104 c 0.73888,-0.77058 1.44349,-1.36589 1.56579,-1.32292 0.12231,0.043 3.60592,3.44365 7.74137,7.55706 l 7.51899,7.47893 -1.48771,1.44171 -1.4877,1.44172 1.57922,1.59654 c 0.86857,0.8781 1.70315,1.59655 1.85462,1.59655 0.15148,0 2.59481,-2.32169 5.42963,-5.15931 l 5.15422,-5.15931 -4.88423,-4.88958 c -3.88613,-3.89039 -4.81718,-4.95662 -4.55617,-5.21764 0.26101,-0.26101 1.32727,0.67007 5.21775,4.55629 l 4.88971,4.88435 5.655835,-5.65125 c 4.46916,-4.46553 5.74467,-5.60153 6.0792,-5.41432 0.34009,0.19033 -1.87858,2.53844 -11.27942,11.9375 l -11.702785,11.70056 z m 11.64144,7.92545 1.03928,-1.06431 -6.93707,-6.93707 -6.93708,-6.93707 -1.12321,1.12321 -1.12321,1.12321 6.87436,6.87817 c 3.7809,3.783 6.94035,6.87818 7.02101,6.87818 0.0807,0 0.61432,-0.47894 1.18592,-1.06432 z m 9.8373,-28.35634 c 0.47987,-0.4651 0.87249,-0.97252 0.87249,-1.12758 0,-0.15506 -1.90482,-2.18396 -4.23294,-4.50866 l -4.23294,-4.22674 -1.12137,1.12138 -1.12138,1.12138 4.22673,4.23294 c 2.32471,2.32811 4.34153,4.23294 4.48183,4.23294 0.14029,0 0.64771,-0.38055 1.12758,-0.84566 z m 21.050825,12.34403 c -6.73264,-1.81318 -10.90403,-8.74274 -9.20033,-15.28369 1.78085,-6.83714 8.69747,-11.0327 15.33705,-9.30331 6.77586,1.76489 10.98734,8.70701 9.27361,15.28644 -1.78105,6.83793 -8.80772,11.07872 -15.41033,9.30056 z m 7.35353,-1.43409 c 2.94475,-1.14899 5.5598,-3.86587 6.75838,-7.02158 0.36547,-0.96222 0.50247,-2.00823 0.50247,-3.83645 0,-2.91873 -0.43643,-4.34102 -2.04053,-6.64985 -5.11428,-7.36118 -16.09451,-6.38943 -19.96806,1.76717 -3.20898,6.75719 0.69926,14.51006 8.25026,16.36625 1.23491,0.30357 5.06009,-0.0647 6.49748,-0.62554 z m -7.67103,-7.71885 c -1.32025,-1.41427 -1.6317,-1.89498 -1.38658,-2.1401 0.24513,-0.24513 0.67267,0.0367 1.9034,1.25456 l 1.58726,1.5707 3.43263,-3.42501 c 2.70554,-2.69953 3.50116,-3.35647 3.75618,-3.10145 0.25503,0.25503 -0.4305,1.09981 -3.23643,3.98827 -1.958,2.01559 -3.73859,3.66747 -3.95687,3.67085 -0.21828,0.003 -1.1631,-0.81464 -2.09959,-1.81782 z"
       id="path207"
       inkscape:connector-curvature="0" />
  </g>
</svg>
