<?xml version="1.0" encoding="UTF-8" standalone="no"?>
<!-- Created with Inkscape (http://www.inkscape.org/) -->

<svg
   xmlns:dc="http://purl.org/dc/elements/1.1/"
   xmlns:cc="http://creativecommons.org/ns#"
   xmlns:rdf="http://www.w3.org/1999/02/22-rdf-syntax-ns#"
   xmlns:svg="http://www.w3.org/2000/svg"
   xmlns="http://www.w3.org/2000/svg"
   xmlns:sodipodi="http://sodipodi.sourceforge.net/DTD/sodipodi-0.dtd"
   xmlns:inkscape="http://www.inkscape.org/namespaces/inkscape"
   width="80.036461mm"
   height="65.795609mm"
   viewBox="0 0 80.036457 65.795599"
   version="1.1"
   id="svg8"
   inkscape:version="0.92.1 r15371"
   sodipodi:docname="icon-1.svg">
  <defs
     id="defs2" />
  <sodipodi:namedview
     id="base"
     pagecolor="#ffffff"
     bordercolor="#666666"
     borderopacity="1.0"
     inkscape:pageopacity="0.0"
     inkscape:pageshadow="2"
     inkscape:zoom="0.49497475"
     inkscape:cx="141.9223"
     inkscape:cy="-61.774623"
     inkscape:document-units="mm"
     inkscape:current-layer="layer1"
     showgrid="false"
     fit-margin-top="0"
     fit-margin-left="0"
     fit-margin-right="0"
     fit-margin-bottom="0"
     inkscape:window-width="1366"
     inkscape:window-height="705"
     inkscape:window-x="-8"
     inkscape:window-y="-8"
     inkscape:window-maximized="1" />
  <metadata
     id="metadata5">
    <rdf:RDF>
      <cc:Work
         rdf:about="">
        <dc:format>image/svg+xml</dc:format>
        <dc:type
           rdf:resource="http://purl.org/dc/dcmitype/StillImage" />
        <dc:title></dc:title>
      </cc:Work>
    </rdf:RDF>
  </metadata>
  <g
     inkscape:label="Layer 1"
     inkscape:groupmode="layer"
     id="layer1"
     transform="translate(-6.2072409,-101.06136)">
    <path
       style="fill:#6fa0d8;stroke-width:0.26458335"
       d="m 82.303131,166.52265 c -0.786818,-0.43608 -7.436514,-11.36655 -7.436514,-12.2238 0,-0.33591 0.132247,-0.90099 0.29388,-1.25574 0.246216,-0.54039 0.19502,-0.77871 -0.315684,-1.46947 -0.492575,-0.66625 -0.544801,-0.88761 -0.272119,-1.15339 0.270468,-0.26363 0.477544,-0.16464 1.043289,0.49872 0.581247,0.68153 0.851953,0.8055 1.533565,0.70229 1.583933,-0.23984 2.098468,0.32742 5.690462,6.27361 1.87203,3.09896 3.40369,5.92081 3.40369,6.27079 0,2.04082 -2.169578,3.33852 -3.940569,2.35699 z m 2.353069,-1.21777 c 0.291042,-0.29105 0.529167,-0.76601 0.529167,-1.05548 0,-0.4841 -5.658768,-10.12193 -6.565117,-11.1815 -0.217834,-0.25466 -0.678011,-0.46302 -1.022615,-0.46302 -0.61087,0 -0.615479,0.0169 -0.184245,0.67504 0.584864,0.89261 0.10759,1.50622 -0.643125,0.82683 -0.640633,-0.57977 -0.845315,-0.55972 -0.845315,0.0828 0,0.4841 5.658768,10.12193 6.565117,11.1815 0.527434,0.6166 1.513501,0.58649 2.166133,-0.0661 z M 7.6624499,164.24654 c 0,-0.51533 0.176389,-0.52916 6.7468751,-0.52916 h 6.746874 v -12.43542 -12.43542 h 1.060739 c 0.818107,0 2.330558,-0.63546 6.612178,-2.77812 l 5.55144,-2.77813 h 8.594286 c 8.314399,0 8.633291,0.019 9.791989,0.58189 0.761709,0.37007 1.197702,0.75533 1.197702,1.05834 0,0.6103 -0.307892,0.60008 -1.587499,-0.0527 -0.974768,-0.49729 -1.543947,-0.52832 -9.448314,-0.51518 l -8.411062,0.014 -4.365626,2.22099 -4.365625,2.221 13.824481,0.014 c 13.64343,0.0138 13.824479,0.0209 13.824479,0.54315 0,0.52319 -0.17639,0.52916 -15.610418,0.52916 H 22.214532 v 11.90626 11.90625 h 1.455209 1.455208 v -5.55625 -5.55625 H 42.984325 60.8437 v 5.55625 5.55625 h 1.450147 1.450147 l 0.07121,-5.75847 c 0.06579,-5.32039 0.106431,-5.75167 0.534228,-5.66914 0.423773,0.0817 0.463021,0.56949 0.463021,5.75414 v 5.66482 l 6.998446,0.0705 c 5.11514,0.0515 7.086201,0.15828 7.324548,0.39679 0.179356,0.17947 0.264589,0.38783 0.189402,0.46302 -0.07519,0.0752 -16.229984,0.13671 -35.899548,0.13671 -35.5864591,0 -35.7628481,-0.003 -35.7628481,-0.52917 z m 28.5749991,-5.55625 v -5.02708 h -5.027083 -5.027084 v 5.02708 5.02709 h 5.027084 5.027083 z m 11.641668,0 v -5.02708 H 42.58745 37.295782 v 5.02708 5.02709 h 5.291668 5.291667 z m 11.90625,0 v -5.02708 H 54.361409 48.93745 v 5.02708 5.02709 h 5.423959 5.423958 z m 4.303329,-7.55163 c -6.732641,-1.81318 -10.904027,-8.74273 -9.200325,-15.28368 1.78085,-6.83715 8.697463,-11.0327 15.337044,-9.30331 6.775863,1.76489 10.987339,8.707 9.273614,15.28644 -1.781053,6.83793 -8.807728,11.07871 -15.410333,9.30055 z m 7.94177,-1.7711 c 2.578306,-1.22444 4.463971,-3.1182 5.716651,-5.7412 0.910434,-1.90637 0.955958,-2.13399 0.955958,-4.77982 0,-2.64583 -0.04552,-2.87345 -0.955958,-4.77982 -1.260753,-2.6399 -3.133691,-4.51284 -5.7736,-5.7736 -1.906368,-0.91043 -2.133989,-0.95595 -4.779817,-0.95595 -2.649416,0 -2.871523,0.0446 -4.794062,0.96272 -2.474934,1.18192 -4.547759,3.19621 -5.638012,5.4788 -0.426127,0.89216 -0.723783,1.66946 -0.661458,1.72734 0.06233,0.0579 1.570009,0.83317 3.3504,1.72288 2.350191,1.17443 3.528153,1.61763 4.29948,1.61763 h 1.062402 v 5.6665 c 0,4.27642 0.08113,5.70346 0.330729,5.81721 0.181901,0.0829 1.368388,0.108 2.636637,0.0558 1.972678,-0.0812 2.586947,-0.22839 4.25065,-1.01848 z m -8.276349,-4.4356 v -5.02708 h -4.1319 -4.1319 l 0.159536,0.59531 c 0.08775,0.32742 0.161165,0.80367 0.163152,1.05833 0.0032,0.40823 0.30107,0.46302 2.517154,0.46302 H 60.8437 v 3.30222 3.30222 l 1.256771,0.65421 c 0.691224,0.35982 1.346068,0.65976 1.455208,0.66653 0.109141,0.007 0.198438,-2.24987 0.198438,-5.01476 z m -3.96875,0.39687 v -2.24895 h -1.725168 -1.725171 l 0.572535,1.12447 c 0.649364,1.27538 2.29444,3.37344 2.645092,3.37344 0.127992,0 0.232712,-1.01203 0.232712,-2.24896 z m -1.664716,-7.56262 c -1.133877,-0.57963 -2.175674,-0.98337 -2.315104,-0.8972 -0.139433,0.0862 -0.253514,0.56637 -0.253514,1.06711 v 0.91042 l 2.315105,-0.0132 2.315104,-0.0132 -2.061591,-1.05388 z m -32.995702,8.22408 v -3.96875 h 14.419793 c 14.243402,0 14.419791,0.006 14.419791,0.52917 0,0.35278 -0.176389,0.52917 -0.529166,0.52917 -0.497097,0 -0.529167,0.17639 -0.529167,2.91041 v 2.91042 h 2.405663 c 2.005034,0 2.517699,0.0881 3.07839,0.52917 l 0.672727,0.52916 H 42.093965 25.124949 Z m 7.672917,0 v -2.91041 h -3.307292 -3.307292 v 2.91041 2.91042 h 3.307292 3.307292 z m 19.050001,0 v -2.91041 h -8.995834 -8.995834 v 2.91041 2.91042 h 8.995834 8.995834 z M 8.5623159,113.73614 c -1.587866,-0.72112 -2.355075,-1.93597 -2.355075,-3.72918 0,-1.11253 0.149599,-1.66496 0.635284,-2.34594 0.673936,-0.94492 2.36634,-1.86722 3.4657591,-1.8887 0.480571,-0.009 0.841862,-0.30525 1.32115,-1.08186 2.335962,-3.78505 7.803559,-3.76673 10.356633,0.0347 0.455044,0.67754 1.172303,1.31891 1.778479,1.5903 1.519063,0.68011 2.286445,1.91905 2.286445,3.69149 0,1.79321 -0.767207,3.00806 -2.355075,3.72918 -0.963123,0.4374 -1.810049,0.49253 -7.566799,0.49253 -5.756752,0 -6.6036771,-0.0551 -7.5668011,-0.49253 z m 15.5354281,-1.58139 c 0.869839,-0.86984 1.027205,-1.19888 1.027205,-2.14779 0,-0.94892 -0.157366,-1.27796 -1.027205,-2.1478 -0.564965,-0.56496 -1.276919,-1.0272 -1.582124,-1.0272 -0.374396,0 -0.720434,-0.32277 -1.063712,-0.99219 -0.641675,-1.25131 -1.4879,-2.04464 -2.738217,-2.56706 -2.499595,-1.0444 -5.290449,0.0437 -6.58445,2.56706 -0.476325,0.92887 -0.586423,0.99219 -1.725171,0.99219 -1.0601831,0 -1.3482761,0.1319 -2.2435811,1.0272 -0.869839,0.86984 -1.027205,1.19888 -1.027205,2.1478 0,0.94891 0.157366,1.27795 1.027205,2.14779 l 1.027206,1.02721 h 6.9414221 6.941419 z m 2.775305,-4.15381 c -0.08833,-0.23018 -0.1606,-0.46831 -0.1606,-0.52916 0,-0.0609 0.814986,-0.11066 1.811076,-0.11066 1.946494,0 2.686841,-0.41364 2.686841,-1.50118 0,-0.51608 -0.747562,-1.40923 -1.179521,-1.40923 -0.116496,0 -0.710755,-0.53578 -1.320575,-1.19063 -0.944284,-1.014 -1.260271,-1.19062 -2.130112,-1.19062 -0.877388,0 -1.185842,0.17663 -2.188316,1.25312 -1.128062,1.21135 -1.179838,1.23561 -1.553105,0.72761 -0.30654,-0.41719 -0.315229,-0.54237 -0.04215,-0.60723 0.189193,-0.0449 0.584025,-0.46166 0.877406,-0.92604 0.677762,-1.07282 2.252813,-1.66244 3.710408,-1.38899 0.756589,0.14193 1.338532,0.51683 2.11487,1.36242 0.589084,0.64163 1.196615,1.16661 1.350071,1.16661 0.431615,0 1.093928,0.84743 1.296424,1.65878 0.248613,0.99612 -0.315603,2.24951 -1.224111,2.71932 -1.046218,0.54102 -3.836929,0.5175 -4.048606,-0.0341 z"
       id="path181"
       inkscape:connector-curvature="0" />
  </g>
</svg>
