<svg id="Phone" xmlns="http://www.w3.org/2000/svg" width="27.094" height="70.56" viewBox="0 0 27.094 70.56">
  <metadata><?xpacket begin="﻿" id="W5M0MpCehiHzreSzNTczkc9d"?>
<x:xmpmeta xmlns:x="adobe:ns:meta/" x:xmptk="Adobe XMP Core 5.6-c138 79.159824, 2016/09/14-01:09:01        ">
   <rdf:RDF xmlns:rdf="http://www.w3.org/1999/02/22-rdf-syntax-ns#">
      <rdf:Description rdf:about=""/>
   </rdf:RDF>
</x:xmpmeta>
                                                                                                    
                                                                                                    
                                                                                                    
                                                                                                    
                                                                                                    
                                                                                                    
                                                                                                    
                                                                                                    
                                                                                                    
                                                                                                    
                                                                                                    
                                                                                                    
                                                                                                    
                                                                                                    
                                                                                                    
                                                                                                    
                                                                                                    
                                                                                                    
                                                                                                    
                                                                                                    
                           
<?xpacket end="w"?></metadata>
<defs>
    <style>
      .cls-1 {
        fill: #1b1b1b;
        fill-opacity: 0;
        stroke: #45484c;
        stroke-linejoin: round;
        stroke-width: 3px;
        fill-rule: evenodd;
      }
    </style>
  </defs>
  <path id="End_call" data-name="End call" class="cls-1" d="M843.634,1145.9a4.884,4.884,0,0,0-2.575-1.33c-0.1-.02-10.08-1.7-12.4.78-6.537,6.97-7.911,21.47-7.912,32.4s1.369,25.44,7.933,32.43l0.057,0.06c2.372,2.37,12.3.79,12.4,0.77,2.661-.46,3.981-2.59,3.685-4.28-0.181-1.03-2.4-12.08-2.72-13.39a3.4,3.4,0,0,0-.934-1.58,5.925,5.925,0,0,0-2.455-1.41c-0.974-.31-4.013-1.14-5.5-1.55a86.506,86.506,0,0,1,0-22.09c1.485-.41,4.519-1.25,5.49-1.55a4.575,4.575,0,0,0,3.4-3.01c0.279-1.25,2.47-12.23,2.643-13.31a3.492,3.492,0,0,0-1.111-2.94h0Z" transform="translate(-819.25 -1142.5)"/>
</svg>
