<svg id="WiFi" xmlns="http://www.w3.org/2000/svg" width="76.56" height="52.87" viewBox="0 0 76.56 52.87">
  <metadata><?xpacket begin="﻿" id="W5M0MpCehiHzreSzNTczkc9d"?>
<x:xmpmeta xmlns:x="adobe:ns:meta/" x:xmptk="Adobe XMP Core 5.6-c138 79.159824, 2016/09/14-01:09:01        ">
   <rdf:RDF xmlns:rdf="http://www.w3.org/1999/02/22-rdf-syntax-ns#">
      <rdf:Description rdf:about=""/>
   </rdf:RDF>
</x:xmpmeta>
                                                                                                    
                                                                                                    
                                                                                                    
                                                                                                    
                                                                                                    
                                                                                                    
                                                                                                    
                                                                                                    
                                                                                                    
                                                                                                    
                                                                                                    
                                                                                                    
                                                                                                    
                                                                                                    
                                                                                                    
                                                                                                    
                                                                                                    
                                                                                                    
                                                                                                    
                                                                                                    
                           
<?xpacket end="w"?></metadata>
<defs>
    <style>
      .cls-1, .cls-2 {
        fill: #45484c;
        fill-rule: evenodd;
      }

      .cls-1 {
        fill-opacity: 0;
        stroke: #45484c;
        stroke-linejoin: round;
        stroke-width: 3px;
      }
    </style>
  </defs>
  <path id="Rounded_Rectangle_17" data-name="Rounded Rectangle 17" class="cls-1" d="M967.5,1380.18h67.564a2.994,2.994,0,0,1,2.99,3v15.59a2.994,2.994,0,0,1-2.99,3H967.5a3,3,0,0,1-3-3v-15.59A3,3,0,0,1,967.5,1380.18Z" transform="translate(-963 -1354.63)"/>
  <path id="Rounded_Rectangle_24_copy" data-name="Rounded Rectangle 24 copy" class="cls-2" d="M1017.49,1390h10a1.5,1.5,0,0,1,0,3h-10A1.5,1.5,0,1,1,1017.49,1390Z" transform="translate(-963 -1354.63)"/>
  <path id="Rounded_Rectangle_19" data-name="Rounded Rectangle 19" class="cls-2" d="M972.929,1400.75a1.348,1.348,0,0,1,1.351,1.35v4.05a1.35,1.35,0,1,1-2.7,0v-4.05A1.348,1.348,0,0,1,972.929,1400.75Z" transform="translate(-963 -1354.63)"/>
  <path id="Rounded_Rectangle_19_copy" data-name="Rounded Rectangle 19 copy" class="cls-2" d="M1030.29,1400.75a1.344,1.344,0,0,1,1.35,1.35v4.05a1.345,1.345,0,1,1-2.69,0v-4.05A1.342,1.342,0,0,1,1030.29,1400.75Z" transform="translate(-963 -1354.63)"/>
  <path id="Rounded_Rectangle_18" data-name="Rounded Rectangle 18" class="cls-2" d="M982.713,1354.62a1.344,1.344,0,0,1,1.343,1.35v23.22a1.344,1.344,0,0,1-2.687,0v-23.22A1.344,1.344,0,0,1,982.713,1354.62Z" transform="translate(-963 -1354.63)"/>
</svg>
