<?xml version="1.0" encoding="UTF-8" standalone="no"?>
<!-- Created with Inkscape (http://www.inkscape.org/) -->

<svg
   xmlns:dc="http://purl.org/dc/elements/1.1/"
   xmlns:cc="http://creativecommons.org/ns#"
   xmlns:rdf="http://www.w3.org/1999/02/22-rdf-syntax-ns#"
   xmlns:svg="http://www.w3.org/2000/svg"
   xmlns="http://www.w3.org/2000/svg"
   xmlns:sodipodi="http://sodipodi.sourceforge.net/DTD/sodipodi-0.dtd"
   xmlns:inkscape="http://www.inkscape.org/namespaces/inkscape"
   width="20.901474mm"
   height="21.396429mm"
   viewBox="0 0 20.901474 21.396426"
   version="1.1"
   id="svg8"
   inkscape:version="0.92.1 r15371"
   sodipodi:docname="icon-guitar.svg">
  <defs
     id="defs2" />
  <sodipodi:namedview
     id="base"
     pagecolor="#ffffff"
     bordercolor="#666666"
     borderopacity="1.0"
     inkscape:pageopacity="0.0"
     inkscape:pageshadow="2"
     inkscape:zoom="2.8"
     inkscape:cx="142.25271"
     inkscape:cy="33.478887"
     inkscape:document-units="mm"
     inkscape:current-layer="layer1"
     showgrid="false"
     fit-margin-top="0"
     fit-margin-left="0"
     fit-margin-right="0"
     fit-margin-bottom="0"
     inkscape:window-width="1366"
     inkscape:window-height="705"
     inkscape:window-x="-8"
     inkscape:window-y="-8"
     inkscape:window-maximized="1" />
  <metadata
     id="metadata5">
    <rdf:RDF>
      <cc:Work
         rdf:about="">
        <dc:format>image/svg+xml</dc:format>
        <dc:type
           rdf:resource="http://purl.org/dc/dcmitype/StillImage" />
        <dc:title></dc:title>
      </cc:Work>
    </rdf:RDF>
  </metadata>
  <g
     inkscape:label="Layer 1"
     inkscape:groupmode="layer"
     id="layer1"
     transform="translate(7.7325507,-136.02642)">
    <path
       style="fill:#474b4f;stroke-width:0.26458332"
       d="m -3.8970793,156.95498 c -2.202738,-1.02208 -3.833955,-3.1977 -3.83547,-5.11553 -0.0013,-1.58833 0.894071,-2.65818 2.777136,-3.31848 1.843611,-0.64646 1.935356,-0.72695 2.637155,-2.31385 0.68127,-1.54047 1.76418407,-2.33841 2.97612207,-2.19293 1.06391693,0.1277 1.35073993,0.82701 0.76354593,1.86162 -0.300125,0.5288 0.763165,-0.37055 2.729612,-2.30877 1.771686,-1.74625 3.36455,-3.47265 3.539698,-3.83645 0.461461,-0.95851 4.2438483,-2.88488 4.8795933,-2.48519 0.946249,0.59492 0.722361,2.37754 -0.331838,2.64213 -0.361585,0.0908 -0.657428,0.31224 -0.657428,0.49219 0,0.46378 -0.920507,1.10505 -1.6138864,1.21156 -0.585842,0.09 -8.1756989,7.52833 -8.1756989,8.00245 0,0.1362 0.20836,0.16006 0.463021,0.053 1.511287,-0.63524 2.169819,-0.38857 2.178761,0.81612 0.0047,0.62657 -1.087536,1.7322 -2.23739,2.26492 -0.526511,0.24394 -0.919819,0.72006 -1.1906249,1.44132 -0.61882003,1.64816 -1.28386503,2.50236 -2.2685561,2.91379 -1.142675,0.47744 -1.350911,0.46733 -2.633752,-0.12791 z m 2.491003,-0.67628 c 0.69001907,-0.35682 1.31006607,-1.32629 1.71965407,-2.68874 0.205057,-0.6821 0.89226893,-1.32755 2.03511393,-1.91145 0.926275,-0.47325 1.524346,-1.22329 1.218951,-1.52869 -0.104213,-0.10421 -0.494706,-0.0261 -0.867762,0.17353 -0.824297,0.44115 -1.5258749,0.1022 -1.6593549,-0.80167 -0.07153,-0.48439 0.7244559,-1.39479 3.9687499,-4.53923 2.562416,-2.48354 4.330651,-3.9943 4.797329,-4.09879 0.4338413,-0.0971 0.8938943,-0.46482 1.1138853,-0.89023 0.206129,-0.39861 0.617675,-0.78827 0.914544,-0.8659 0.326473,-0.0854 0.539763,-0.36004 0.539763,-0.69509 0,-0.30467 -0.0625,-0.55394 -0.138897,-0.55394 -0.482697,0 -3.8298543,1.92127 -3.8298543,2.19834 0,0.18679 -1.670098,1.99446 -3.711329,4.01706 l -3.71132793,3.67746 -0.556982,-0.55699 -0.556983,-0.55698 0.564145,-0.79227 c 0.71008593,-0.99722 0.70543293,-1.10745 -0.04674,-1.10745 -0.897372,0 -1.38800007,0.48674 -2.16226807,2.14513 -0.701389,1.5023 -1.075455,1.81254 -2.832708,2.34942 -1.646744,0.50311 -2.331636,1.21306 -2.331636,2.41696 0,1.27076 0.455802,2.20052 1.631072,3.32712 0.778414,0.74618 2.345817,1.62788 2.94613,1.65726 0.116367,0.006 0.546797,-0.16299 0.95651,-0.37486 z m -1.035795,-0.9377 c 0,-0.14552 0.119062,-0.26458 0.264583,-0.26458 0.145521,0 0.264584,0.11906 0.264584,0.26458 0,0.14552 -0.119063,0.26459 -0.264584,0.26459 -0.145521,0 -0.264583,-0.11907 -0.264583,-0.26459 z m -0.517551,-3.35262 c -0.402522,-0.51172 -0.475764,-0.78555 -0.265382,-0.99218 0.208916,-0.2052 0.472357,-0.0755 0.937411,0.46135 0.601913,0.69489 0.651771,1.23762 0.113694,1.23762 -0.126371,0 -0.479946,-0.31805 -0.785723,-0.70679 z m 1.058333,-1.05833 c -0.402522,-0.51172 -0.475763,-0.78555 -0.265381,-0.99219 0.208916,-0.20519 0.472356,-0.0755 0.93741,0.46135 0.60191307,0.6949 0.65177107,1.23763 0.113694,1.23763 -0.12637,0 -0.479946,-0.31806 -0.785723,-0.70679 z m 10.042551,-12.78696 c 0,-0.14552 0.119063,-0.26459 0.264584,-0.26459 0.14552,0 0.264583,0.11907 0.264583,0.26459 0,0.14552 -0.119063,0.26458 -0.264583,0.26458 -0.145521,0 -0.264584,-0.11906 -0.264584,-0.26458 z m 1.204592,-0.50657 c -0.08519,-0.13784 -0.04211,-0.32032 0.09573,-0.40551 0.137839,-0.0852 0.320317,-0.0421 0.405507,0.0957 0.08519,0.13784 0.04211,0.32032 -0.09573,0.40551 -0.137839,0.0852 -0.320317,0.0421 -0.405507,-0.0957 z m 1.0699153,-0.51043 c -0.09156,-0.14815 -0.03754,-0.34904 0.120031,-0.44642 0.406793,-0.25142 0.669256,0.093 0.329667,0.43255 -0.190019,0.19002 -0.338013,0.19458 -0.449698,0.0139 z m 0.998035,-0.7028 c 0,-0.21828 0.286105,-0.39687 0.431626,-0.39687 0.145521,0 0.264583,0.17859 0.264583,0.39687 0,0.21829 -0.119062,0.39688 -0.264583,0.39688 -0.145521,0 -0.431626,-0.17859 -0.431626,-0.39688 z"
       id="path114"
       inkscape:connector-curvature="0"
       sodipodi:nodetypes="ccccccccccscsccccscccsscccccccssssccccsccsccccssssscccscsccsssssssccccccccccsssss" />
  </g>
</svg>
