<?xml version="1.0" encoding="UTF-8" standalone="no"?>
<!-- Created with Inkscape (http://www.inkscape.org/) -->

<svg
   xmlns:dc="http://purl.org/dc/elements/1.1/"
   xmlns:cc="http://creativecommons.org/ns#"
   xmlns:rdf="http://www.w3.org/1999/02/22-rdf-syntax-ns#"
   xmlns:svg="http://www.w3.org/2000/svg"
   xmlns="http://www.w3.org/2000/svg"
   xmlns:sodipodi="http://sodipodi.sourceforge.net/DTD/sodipodi-0.dtd"
   xmlns:inkscape="http://www.inkscape.org/namespaces/inkscape"
   width="12.259002mm"
   height="15.436065mm"
   viewBox="0 0 12.259002 15.436062"
   version="1.1"
   id="svg8"
   inkscape:version="0.92.1 r15371"
   sodipodi:docname="icon-intercom.svg">
  <defs
     id="defs2" />
  <sodipodi:namedview
     id="base"
     pagecolor="#ffffff"
     bordercolor="#666666"
     borderopacity="1.0"
     inkscape:pageopacity="0.0"
     inkscape:pageshadow="2"
     inkscape:zoom="2.8"
     inkscape:cx="-88.840319"
     inkscape:cy="8.8543139"
     inkscape:document-units="mm"
     inkscape:current-layer="layer1"
     showgrid="false"
     fit-margin-top="0"
     fit-margin-left="0"
     fit-margin-right="0"
     fit-margin-bottom="0"
     inkscape:window-width="1366"
     inkscape:window-height="705"
     inkscape:window-x="-8"
     inkscape:window-y="-8"
     inkscape:window-maximized="1" />
  <metadata
     id="metadata5">
    <rdf:RDF>
      <cc:Work
         rdf:about="">
        <dc:format>image/svg+xml</dc:format>
        <dc:type
           rdf:resource="http://purl.org/dc/dcmitype/StillImage" />
        <dc:title></dc:title>
      </cc:Work>
    </rdf:RDF>
  </metadata>
  <g
     inkscape:label="Layer 1"
     inkscape:groupmode="layer"
     id="layer1"
     transform="translate(-25.894642,-143.54076)">
    <path
       style="fill:#41454a;stroke-width:0.26458332"
       d="m 25.972132,158.68957 c -0.07161,-0.18661 -0.0985,-3.67143 -0.05976,-7.74405 l 0.07044,-7.40476 h 6.085416 6.085416 v 7.67292 7.67291 l -6.025662,0.0711 c -4.709526,0.0556 -6.054099,-0.003 -6.155857,-0.26815 z m 11.520061,-7.47589 v -7.01146 h -5.423958 -5.423958 v 7.01146 7.01146 h 5.423958 5.423958 z m -6.879166,4.49791 c 0,-0.31207 0.367477,-0.39687 1.719791,-0.39687 1.352315,0 1.719792,0.0848 1.719792,0.39687 0,0.31208 -0.367477,0.39688 -1.719792,0.39688 -1.352314,0 -1.719791,-0.0848 -1.719791,-0.39688 z m -2.531018,-4.97721 c -0.07624,-0.19868 -0.103494,-1.3032 -0.06057,-2.45451 l 0.07804,-2.09328 h 3.96875 3.96875 v 2.38125 2.38125 l -3.908182,0.0733 c -3.109301,0.0583 -3.936515,-5.9e-4 -4.046794,-0.28797 z m 7.293517,-2.16654 v -1.71979 h -3.307291 -3.307291 v 1.71979 1.7198 h 3.307291 3.307291 z"
       id="path75"
       inkscape:connector-curvature="0" />
  </g>
</svg>
