<?xml version="1.0" encoding="UTF-8" standalone="no"?>
<!-- Created with Inkscape (http://www.inkscape.org/) -->

<svg
   xmlns:dc="http://purl.org/dc/elements/1.1/"
   xmlns:cc="http://creativecommons.org/ns#"
   xmlns:rdf="http://www.w3.org/1999/02/22-rdf-syntax-ns#"
   xmlns:svg="http://www.w3.org/2000/svg"
   xmlns="http://www.w3.org/2000/svg"
   xmlns:sodipodi="http://sodipodi.sourceforge.net/DTD/sodipodi-0.dtd"
   xmlns:inkscape="http://www.inkscape.org/namespaces/inkscape"
   width="19.006908mm"
   height="14.017018mm"
   viewBox="0 0 19.006908 14.017016"
   version="1.1"
   id="svg8"
   inkscape:version="0.92.1 r15371"
   sodipodi:docname="icon-camera.svg">
  <defs
     id="defs2" />
  <sodipodi:namedview
     id="base"
     pagecolor="#ffffff"
     bordercolor="#666666"
     borderopacity="1.0"
     inkscape:pageopacity="0.0"
     inkscape:pageshadow="2"
     inkscape:zoom="2.8"
     inkscape:cx="132.37556"
     inkscape:cy="16.907477"
     inkscape:document-units="mm"
     inkscape:current-layer="layer1"
     showgrid="false"
     fit-margin-top="0"
     fit-margin-left="0"
     fit-margin-right="0"
     fit-margin-bottom="0"
     inkscape:window-width="1366"
     inkscape:window-height="705"
     inkscape:window-x="-8"
     inkscape:window-y="-8"
     inkscape:window-maximized="1" />
  <metadata
     id="metadata5">
    <rdf:RDF>
      <cc:Work
         rdf:about="">
        <dc:format>image/svg+xml</dc:format>
        <dc:type
           rdf:resource="http://purl.org/dc/dcmitype/StillImage" />
        <dc:title></dc:title>
      </cc:Work>
    </rdf:RDF>
  </metadata>
  <g
     inkscape:label="Layer 1"
     inkscape:groupmode="layer"
     id="layer1"
     transform="translate(5.1192211,-139.02131)">
    <path
       style="fill:#464a4f;stroke-width:0.26458332"
       d="m 8.4143998,150.69298 -1.497925,-2.34534 -3.062831,1.94701 c -1.684557,1.07086 -3.19836003,1.94767 -3.36400703,1.94847 -0.165647,8e-4 -0.77068,-0.74735 -1.344518,-1.66257 -1.00019197,-1.59521 -1.11159397,-1.683 -2.69359797,-2.12284 -1.15056,-0.31988 -1.624712,-0.57409 -1.565898,-0.83953 0.09166,-0.4137 12.967796,-8.60654 13.511107,-8.59686 0.537658,0.01 3.7663622,5.55716 3.4826592,5.98393 -0.132363,0.19911 -1.155277,0.93607 -2.2731422,1.63769 l -2.032482,1.27566 1.369537,2.16299 1.3695382,2.16299 h 1.787424 c 1.412432,0 1.787423,0.0833 1.787423,0.39687 0,0.31756 -0.397242,0.39688 -1.987681,0.39688 H 9.9123238 Z m 1.9641212,-5.47896 0.856458,-0.53284 -1.4563912,-2.36986 c -0.801015,-1.30343 -1.54946,-2.34807 -1.663211,-2.32143 -0.55239,0.12935 -11.946295,7.46599 -11.765879,7.57616 0.11439,0.0698 0.711973,0.26216 1.327962,0.42737 0.680584,0.18254 1.241908,0.53041 1.43076597,0.88671 0.170933,0.32248 0.5879,1.02763 0.926594,1.567 l 0.615807,0.98068 4.43571803,-2.84047 c 2.439645,-1.56227 4.821124,-3.08026 5.2921762,-3.37332 z m -5.2220832,-0.62965 c 0,-0.29483 2.211964,-1.86479 2.627358,-1.86479 0.599531,0 0.235481,0.53648 -0.889092,1.31021 -1.202292,0.82719 -1.738266,0.9982 -1.738266,0.55458 z"
       id="path127"
       inkscape:connector-curvature="0" />
  </g>
</svg>
