<?xml version="1.0" encoding="UTF-8" standalone="no"?>
<!-- Created with Inkscape (http://www.inkscape.org/) -->

<svg
   xmlns:dc="http://purl.org/dc/elements/1.1/"
   xmlns:cc="http://creativecommons.org/ns#"
   xmlns:rdf="http://www.w3.org/1999/02/22-rdf-syntax-ns#"
   xmlns:svg="http://www.w3.org/2000/svg"
   xmlns="http://www.w3.org/2000/svg"
   xmlns:sodipodi="http://sodipodi.sourceforge.net/DTD/sodipodi-0.dtd"
   xmlns:inkscape="http://www.inkscape.org/namespaces/inkscape"
   width="61.316216mm"
   height="39.21439mm"
   viewBox="0 0 61.316213 39.214384"
   version="1.1"
   id="svg8"
   inkscape:version="0.92.1 r15371"
   sodipodi:docname="icon-2.svg">
  <defs
     id="defs2" />
  <sodipodi:namedview
     id="base"
     pagecolor="#ffffff"
     bordercolor="#666666"
     borderopacity="1.0"
     inkscape:pageopacity="0.0"
     inkscape:pageshadow="2"
     inkscape:zoom="0.49497475"
     inkscape:cx="104.10514"
     inkscape:cy="-106.95233"
     inkscape:document-units="mm"
     inkscape:current-layer="layer1"
     showgrid="false"
     fit-margin-top="0"
     fit-margin-left="0"
     fit-margin-right="0"
     fit-margin-bottom="0"
     inkscape:window-width="1366"
     inkscape:window-height="705"
     inkscape:window-x="-8"
     inkscape:window-y="-8"
     inkscape:window-maximized="1" />
  <metadata
     id="metadata5">
    <rdf:RDF>
      <cc:Work
         rdf:about="">
        <dc:format>image/svg+xml</dc:format>
        <dc:type
           rdf:resource="http://purl.org/dc/dcmitype/StillImage" />
        <dc:title></dc:title>
      </cc:Work>
    </rdf:RDF>
  </metadata>
  <g
     inkscape:label="Layer 1"
     inkscape:groupmode="layer"
     id="layer1"
     transform="translate(-16.213032,-115.68931)">
    <path
       style="fill:#6ea0d8;stroke-width:0.26458332"
       d="m 22.495917,139.42558 v -15.47813 h 27.51666 27.51667 v 15.47813 15.47812 h -27.51667 -27.51666 z m 53.975,0 v -14.41979 h -26.45834 -26.45833 v 14.41979 14.41979 h 26.45833 26.45834 z m -47.76844,9.90383 c -0.41591,-0.67294 0.53077,-0.78361 6.11509,-0.71485 4.94947,0.0609 5.80231,0.12977 5.80231,0.46831 0,0.33871 -0.86005,0.40731 -5.86827,0.46803 -4.07296,0.0494 -5.9236,-0.0184 -6.04913,-0.22149 z m 23.54899,-2.42634 c -0.0712,-0.18563 -0.0981,-4.32525 -0.0597,-9.19916 l 0.0698,-8.86166 9.89084,-0.0694 c 7.15018,-0.0502 9.99232,0.0148 10.25707,0.23455 0.29768,0.24705 0.35302,1.54762 0.29562,6.94856 l -0.0706,6.64463 h -2.51354 c -2.05787,0 -2.51354,-0.072 -2.51354,-0.39688 0,-0.31199 0.43856,-0.4134 2.05052,-0.47415 l 2.05052,-0.0773 v -5.942 -5.94199 h -1.7114 -1.71139 l -0.0745,3.10885 c -0.0612,2.55391 -0.14539,3.10886 -0.47142,3.10886 -0.32603,0 -0.41018,-0.55495 -0.47142,-3.10886 l -0.0745,-3.10885 h -3.82209 -3.8221 l -0.0721,4.82864 c -0.061,4.08369 -0.13334,4.82865 -0.46899,4.82865 -0.33564,0 -0.408,-0.74496 -0.46899,-4.82865 l -0.0721,-4.82864 h -2.63986 -2.63986 v 6.20904 6.20904 l 2.97656,0.0748 c 2.43619,0.0612 2.97656,0.14686 2.97656,0.47169 0,0.32483 -0.54037,0.41046 -2.97656,0.47169 l -2.97656,0.0748 v 1.44654 1.44654 h 5.283 5.283 l 0.0748,-2.97656 c 0.0612,-2.43619 0.14686,-2.97656 0.47168,-2.97656 0.33243,0 0.39688,0.55856 0.39688,3.43958 v 3.43959 l -6.15799,0.071 c -4.80045,0.0554 -6.18654,-0.003 -6.2875,-0.26646 z m -23.54987,-0.22091 c -0.099,-0.16018 -0.0696,-0.4016 0.0653,-0.53649 0.14347,-0.14347 3.80693,-0.21626 8.82726,-0.17538 7.421,0.0604 8.582,0.12356 8.582,0.46675 0,0.34326 -1.16819,0.40629 -8.64727,0.46661 -6.07632,0.049 -8.70078,-0.0169 -8.82726,-0.22149 z m 0,-2.64583 c -0.099,-0.16018 -0.0696,-0.4016 0.0653,-0.53649 0.14347,-0.14348 3.80693,-0.21626 8.82726,-0.17539 7.421,0.0604 8.582,0.12357 8.582,0.46675 0,0.34326 -1.16819,0.4063 -8.64727,0.46662 -6.07632,0.049 -8.70078,-0.0169 -8.82726,-0.22149 z m 0,-2.64584 c -0.099,-0.16017 -0.0696,-0.40159 0.0653,-0.53649 0.14347,-0.14347 3.80693,-0.21626 8.82726,-0.17538 7.421,0.0604 8.582,0.12357 8.582,0.46675 0,0.34326 -1.16819,0.4063 -8.64727,0.46661 -6.07632,0.049 -8.70078,-0.0168 -8.82726,-0.22149 z m 1.10604,-9.78932 c -0.46228,-0.36363 -0.69714,-0.80284 -0.69714,-1.30372 0,-1.14618 1.06513,-1.85208 2.7946,-1.85208 1.19766,0 1.47969,0.1009 1.9487,0.69714 0.3016,0.38343 0.54837,0.90315 0.54837,1.15494 0,0.2518 -0.24677,0.77152 -0.54837,1.15495 -0.46901,0.59624 -0.75104,0.69714 -1.9487,0.69714 -1.01603,0 -1.59163,-0.15049 -2.09746,-0.54837 z m 3.4039,-1.30372 c 0,-0.61159 -0.10494,-0.66749 -1.39202,-0.74153 -1.06607,-0.0613 -1.42893,0.0161 -1.54966,0.33073 -0.34818,0.90734 0.0939,1.23608 1.54966,1.15234 1.28708,-0.074 1.39202,-0.12994 1.39202,-0.74154 z m -14.94973,19.9099 c -4.2e-4,-0.10914 -0.47538,-7.0359 -1.05545,-15.39281 -0.58008,-8.3569 -1.02622,-15.2171 -0.99142,-15.24489 0.0348,-0.0278 11.67186,-0.84134 25.86014,-1.8079 14.18829,-0.96656 26.52928,-1.82827 27.42444,-1.91491 l 1.62756,-0.15753 0.16907,2.34313 c 0.093,1.28873 0.23496,2.90869 0.3155,3.59991 0.13349,1.14578 0.0975,1.25677 -0.40757,1.25677 -0.3047,0 -0.56069,-0.0893 -0.56886,-0.19844 -0.008,-0.10914 -0.10614,-1.41757 -0.2177,-2.90762 -0.11155,-1.49005 -0.25368,-2.75537 -0.31586,-2.81183 -0.11602,-0.10536 -52.67288,3.48162 -52.77786,3.60206 -0.045,0.0516 1.90457,28.34601 1.97969,28.73127 0.01,0.0492 0.49368,0.009 1.07576,-0.0894 0.93511,-0.15798 1.05834,-0.11852 1.05834,0.339 0,0.39281 -0.23952,0.55739 -0.99219,0.6818 -1.34264,0.22193 -2.18266,0.21092 -2.18359,-0.0286 z"
       id="path194"
       inkscape:connector-curvature="0" />
  </g>
</svg>
