<?xml version="1.0" encoding="UTF-8" standalone="no"?>
<!-- Created with Inkscape (http://www.inkscape.org/) -->

<svg
   xmlns:dc="http://purl.org/dc/elements/1.1/"
   xmlns:cc="http://creativecommons.org/ns#"
   xmlns:rdf="http://www.w3.org/1999/02/22-rdf-syntax-ns#"
   xmlns:svg="http://www.w3.org/2000/svg"
   xmlns="http://www.w3.org/2000/svg"
   xmlns:sodipodi="http://sodipodi.sourceforge.net/DTD/sodipodi-0.dtd"
   xmlns:inkscape="http://www.inkscape.org/namespaces/inkscape"
   width="25.664583mm"
   height="10.354939mm"
   viewBox="0 0 25.664584 10.354938"
   version="1.1"
   id="svg8"
   inkscape:version="0.92.1 r15371"
   sodipodi:docname="icon-air.svg">
  <defs
     id="defs2" />
  <sodipodi:namedview
     id="base"
     pagecolor="#ffffff"
     bordercolor="#666666"
     borderopacity="1.0"
     inkscape:pageopacity="0.0"
     inkscape:pageshadow="2"
     inkscape:zoom="2.8"
     inkscape:cx="-50.745021"
     inkscape:cy="-8.2010139"
     inkscape:document-units="mm"
     inkscape:current-layer="layer1"
     showgrid="false"
     fit-margin-top="0"
     fit-margin-left="0"
     fit-margin-right="0"
     fit-margin-bottom="0"
     inkscape:window-width="1366"
     inkscape:window-height="705"
     inkscape:window-x="-8"
     inkscape:window-y="-8"
     inkscape:window-maximized="1" />
  <metadata
     id="metadata5">
    <rdf:RDF>
      <cc:Work
         rdf:about="">
        <dc:format>image/svg+xml</dc:format>
        <dc:type
           rdf:resource="http://purl.org/dc/dcmitype/StillImage" />
        <dc:title></dc:title>
      </cc:Work>
    </rdf:RDF>
  </metadata>
  <g
     inkscape:label="Layer 1"
     inkscape:groupmode="layer"
     id="layer1"
     transform="translate(-15.815261,-144.10933)">
    <path
       style="fill:#41454a;stroke-width:0.26458332"
       d="m 17.339941,154.0139 c -1.272612,-0.69051 -1.52468,-1.58219 -1.52468,-5.39351 0,-3.09995 0.05407,-3.50679 0.529167,-3.98189 0.513311,-0.51331 0.881944,-0.52917 12.303124,-0.52917 11.421181,0 11.789814,0.0159 12.303125,0.52917 0.4751,0.4751 0.529167,0.88194 0.529167,3.98189 0,3.85041 -0.254366,4.72142 -1.578839,5.40634 -1.143319,0.59123 -21.469081,0.57968 -22.561064,-0.0128 z m 22.562768,-0.97488 0.639312,-0.59532 -5.863023,-0.0712 c -3.224662,-0.0391 -8.577168,-0.0391 -11.894456,0 l -6.031434,0.0712 0.6393,0.59532 0.6393,0.59531 h 10.615844 10.615845 z m 0.783385,-4.51115 c 0,-1.97261 -0.108019,-3.09781 -0.3175,-3.30729 -0.456656,-0.45666 -22.985427,-0.45666 -23.442083,0 -0.209481,0.20948 -0.3175,1.33468 -0.3175,3.30729 v 2.98979 h 12.038541 12.038542 z m -22.225,-0.0529 c 0,-0.31207 0.367477,-0.39687 1.719792,-0.39687 1.352315,0 1.719792,0.0848 1.719792,0.39687 0,0.31208 -0.367477,0.39688 -1.719792,0.39688 -1.352315,0 -1.719792,-0.0848 -1.719792,-0.39688 z"
       id="path49"
       inkscape:connector-curvature="0" />
  </g>
</svg>
